<svg width="120" height="81" viewBox="0 0 120 81" fill="none" xmlns="http://www.w3.org/2000/svg">
<path d="M59.4582 10.1915C62.626 5.66747 68.8614 4.56799 73.3855 7.73576V7.73576C77.9095 10.9035 79.009 17.139 75.8412 21.663L46.4337 63.6613L30.0507 52.1898L59.4582 10.1915Z" fill="url(#paint0_linear_46_11)"/>
<rect x="0.695068" y="10.8696" width="20" height="80" rx="5" transform="rotate(-30 0.695068 10.8696)" fill="url(#paint1_linear_46_11)"/>
<rect x="35.8183" y="13.4715" width="20" height="63.4114" rx="10" transform="rotate(-35 35.8183 13.4715)" fill="url(#paint2_linear_46_11)"/>
<rect x="102.05" y="0.224945" width="20" height="80" rx="5" transform="rotate(30 102.05 0.224945)" fill="url(#paint3_linear_46_11)"/>
<defs>
<linearGradient id="paint0_linear_46_11" x1="73.3855" y1="7.73576" x2="38.2422" y2="57.9255" gradientUnits="userSpaceOnUse">
<stop stop-color="#3A2533"/>
<stop offset="1" stop-color="#A0668D"/>
</linearGradient>
<linearGradient id="paint1_linear_46_11" x1="10.6951" y1="10.8696" x2="10.6951" y2="90.8696" gradientUnits="userSpaceOnUse">
<stop stop-color="#3A2533"/>
<stop offset="1" stop-color="#A0668D"/>
</linearGradient>
<linearGradient id="paint2_linear_46_11" x1="45.8183" y1="13.4715" x2="45.8183" y2="76.8829" gradientUnits="userSpaceOnUse">
<stop stop-color="#3A2533"/>
<stop offset="1" stop-color="#A0668D"/>
</linearGradient>
<linearGradient id="paint3_linear_46_11" x1="112.05" y1="0.224945" x2="112.05" y2="80.2249" gradientUnits="userSpaceOnUse">
<stop stop-color="#3A2533"/>
<stop offset="1" stop-color="#A0668D"/>
</linearGradient>
</defs>
</svg>
